<svg xmlns="http://www.w3.org/2000/svg" viewBox="0 0 960 30" width="960" height="30" role="img" aria-label="divider">
  <defs>
    <linearGradient id="spectrum" x1="0" y1="0" x2="1" y2="0"><stop offset="0" stop-color="#2FDAC4"/><stop offset="0.08" stop-color="#0DC3C5"/><stop offset="0.17" stop-color="#0CABC0"/><stop offset="0.25" stop-color="#0994BA"/><stop offset="0.33" stop-color="#0780B8"/><stop offset="0.42" stop-color="#006ABC"/><stop offset="0.5" stop-color="#073FE3"/><stop offset="0.58" stop-color="#6E2FEA"/><stop offset="0.67" stop-color="#A81FD7"/><stop offset="0.75" stop-color="#DA02AF"/><stop offset="0.83" stop-color="#D50485"/><stop offset="0.92" stop-color="#CE015E"/><stop offset="1" stop-color="#C30839"/></linearGradient>
    <linearGradient id="ivory" x1="0" y1="0" x2="0" y2="1">
      <stop offset="0" stop-color="#FFFDF8"/><stop offset="1" stop-color="#F0DFC4"/>
    </linearGradient>
    <radialGradient id="ruby-body" cx="0.34" cy="0.30" r="0.85">
      <stop offset="0" stop-color="#FDB4BA"/><stop offset="0.25" stop-color="#ED3151"/>
      <stop offset="0.55" stop-color="#C30839"/><stop offset="0.82" stop-color="#7A051D"/><stop offset="1" stop-color="#3A060A"/>
    </radialGradient>
    <linearGradient id="ruby-table" x1="0" y1="0" x2="1" y2="1">
      <stop offset="0" stop-color="#FDB4BA" stop-opacity="0.8"/><stop offset="1" stop-color="#C30839" stop-opacity="0.1"/>
    </linearGradient>
    <linearGradient id="sapphire-table" x1="0" y1="0" x2="1" y2="1">
      <stop offset="0" stop-color="#76B0FE"/><stop offset="0.5" stop-color="#1962F0"/><stop offset="1" stop-color="#0D2FB4"/>
    </linearGradient>
    <linearGradient id="spec-hl" x1="0" y1="0" x2="1" y2="1">
      <stop offset="0" stop-color="#FFFFFF" stop-opacity="0.95"/><stop offset="0.55" stop-color="#FFFFFF" stop-opacity="0"/>
    </linearGradient>
    <linearGradient id="gloss" x1="0" y1="0" x2="0.55" y2="1">
      <stop offset="0" stop-color="#FFFFFF" stop-opacity="0.42"/><stop offset="0.42" stop-color="#FFFFFF" stop-opacity="0.04"/>
      <stop offset="1" stop-color="#000000" stop-opacity="0.16"/>
    </linearGradient>
    <filter id="blur-xs" x="-50%" y="-50%" width="200%" height="200%"><feGaussianBlur stdDeviation="1.2"/></filter>
    <filter id="blur-s" x="-50%" y="-50%" width="200%" height="200%"><feGaussianBlur stdDeviation="2.5"/></filter>
    <filter id="blur-m" x="-50%" y="-50%" width="200%" height="200%"><feGaussianBlur stdDeviation="6"/></filter>
    <filter id="blur-l" x="-50%" y="-50%" width="200%" height="200%"><feGaussianBlur stdDeviation="12"/></filter>
    <filter id="grain" x="0" y="0" width="100%" height="100%">
      <feTurbulence type="fractalNoise" baseFrequency="0.85" numOctaves="2" seed="11" stitchTiles="stitch"/>
      <feColorMatrix values="0 0 0 0 0.16  0 0 0 0 0.10  0 0 0 0 0.05  0.55 0 0 0 -0.2"/>
    </filter>
    <linearGradient id="fade" x1="0" y1="0" x2="1" y2="0">
      <stop offset="0" stop-color="#FFFFFF" stop-opacity="0"/><stop offset="0.3" stop-color="#FFFFFF"/>
      <stop offset="0.7" stop-color="#FFFFFF"/><stop offset="1" stop-color="#FFFFFF" stop-opacity="0"/></linearGradient>
    <mask id="m"><rect width="960" height="30" fill="url(#fade)"/><rect x="416.0" y="0" width="128" height="30" fill="#000000"/></mask>
  </defs>
  <rect x="0" y="13" width="960" height="2" rx="1" fill="url(#spectrum)" mask="url(#m)"/>
  <circle cx="458.6" cy="15.4" r="3.2" fill="#29190C" opacity="0.45" filter="url(#blur-xs)"/><circle cx="458" cy="14" r="3.2" fill="#073FE3" stroke="#0B2087" stroke-width="0.8"/><circle cx="458.64" cy="14.8" r="1.76" fill="#96C0FE" opacity="0.45"/><ellipse cx="457.04" cy="12.78" rx="1.34" ry="0.83" fill="#FFFFFF" opacity="0.85"/><circle cx="502.6" cy="15.4" r="3.2" fill="#29190C" opacity="0.45" filter="url(#blur-xs)"/><circle cx="502" cy="14" r="3.2" fill="#073FE3" stroke="#0B2087" stroke-width="0.8"/><circle cx="502.64" cy="14.8" r="1.76" fill="#96C0FE" opacity="0.45"/><ellipse cx="501.04" cy="12.78" rx="1.34" ry="0.83" fill="#FFFFFF" opacity="0.85"/><circle cx="442.6" cy="15.4" r="2.2" fill="#29190C" opacity="0.45" filter="url(#blur-xs)"/><circle cx="442" cy="14" r="2.2" fill="#2FDAC4" stroke="#08837A" stroke-width="0.8"/><circle cx="442.44" cy="14.55" r="1.21" fill="#B4F8EB" opacity="0.45"/><ellipse cx="441.34" cy="13.16" rx="0.92" ry="0.57" fill="#FFFFFF" opacity="0.85"/><circle cx="518.6" cy="15.4" r="2.2" fill="#29190C" opacity="0.45" filter="url(#blur-xs)"/><circle cx="518" cy="14" r="2.2" fill="#2FDAC4" stroke="#08837A" stroke-width="0.8"/><circle cx="518.44" cy="14.55" r="1.21" fill="#B4F8EB" opacity="0.45"/><ellipse cx="517.34" cy="13.16" rx="0.92" ry="0.57" fill="#FFFFFF" opacity="0.85"/><circle cx="429.6" cy="15.4" r="1.6" fill="#29190C" opacity="0.45" filter="url(#blur-xs)"/><circle cx="429" cy="14" r="1.6" fill="#DA02AF" stroke="#7E0360" stroke-width="0.8"/><circle cx="429.32" cy="14.4" r="0.88" fill="#FEB8E6" opacity="0.45"/><ellipse cx="428.52" cy="13.39" rx="0.67" ry="0.42" fill="#FFFFFF" opacity="0.85"/><circle cx="531.6" cy="15.4" r="1.6" fill="#29190C" opacity="0.45" filter="url(#blur-xs)"/><circle cx="531" cy="14" r="1.6" fill="#DA02AF" stroke="#7E0360" stroke-width="0.8"/><circle cx="531.32" cy="14.4" r="0.88" fill="#FEB8E6" opacity="0.45"/><ellipse cx="530.52" cy="13.39" rx="0.67" ry="0.42" fill="#FFFFFF" opacity="0.85"/>
  <clipPath id="dq-clip"><rect x="474.5" y="8.5" width="11" height="11" rx="1.76" transform="rotate(45 480 14)" /></clipPath>
    <g transform="translate(0.88 1.76)"><rect x="474.5" y="8.5" width="11" height="11" rx="2.2" transform="rotate(45 480 14)" fill="#29190C" opacity="0.5" filter="url(#blur-s)"/></g>
    <g transform="translate(1.76 3.3)" style="mix-blend-mode:multiply"><rect x="474.5" y="8.5" width="11" height="11" rx="3.3" transform="rotate(45 480 14)" fill="#7A051D" opacity="0.45" filter="url(#blur-s)"/></g>
    <rect x="474.5" y="8.5" width="11" height="11" rx="1.76" transform="rotate(45 480 14)" fill="url(#ruby-body)"/>
    <g transform="rotate(45 480 14)" stroke="#FDB4BA" stroke-opacity="0.35" stroke-width="0.2"><line x1="476.92" y1="10.92" x2="474.88" y2="8.88"/><line x1="483.08" y1="10.92" x2="485.12" y2="8.88"/><line x1="483.08" y1="17.08" x2="485.12" y2="19.12"/><line x1="476.92" y1="17.08" x2="474.88" y2="19.12"/></g>
    <rect x="476.92" y="10.92" width="6.16" height="6.16" rx="0.86" transform="rotate(45 480 14)" fill="url(#ruby-table)" stroke="#FDB4BA" stroke-opacity="0.5" stroke-width="0.15"/>
    <g clip-path="url(#dq-clip)"><ellipse cx="477.8" cy="11.14" rx="3.96" ry="1.65" transform="rotate(-35 477.8 11.14)" fill="url(#spec-hl)"/></g>
    <rect x="474.5" y="8.5" width="11" height="11" rx="1.76" transform="rotate(45 480 14)" fill="none" stroke="#FDB4BA" stroke-opacity="0.8" stroke-width="0.22"/>
</svg>
