<svg xmlns="http://www.w3.org/2000/svg" viewBox="0 0 512 512" width="512" height="512" role="img" aria-labelledby="t">
  <title id="t">Inceptron logo</title>
  <defs>
    <linearGradient id="spectrum" x1="0" y1="0" x2="1" y2="0"><stop offset="0" stop-color="#4FF7CC"/><stop offset="0.08" stop-color="#14E1D5"/><stop offset="0.17" stop-color="#03C8D7"/><stop offset="0.25" stop-color="#0CB0D4"/><stop offset="0.33" stop-color="#0B98CF"/><stop offset="0.42" stop-color="#007ED1"/><stop offset="0.5" stop-color="#1F5ED9"/><stop offset="0.58" stop-color="#7655F2"/><stop offset="0.67" stop-color="#B748F1"/><stop offset="0.75" stop-color="#F535D5"/><stop offset="0.83" stop-color="#F126A9"/><stop offset="0.92" stop-color="#E91D7E"/><stop offset="1" stop-color="#DD1B57"/></linearGradient>
    <linearGradient id="pearl" x1="0" y1="0" x2="0" y2="1">
      <stop offset="0" stop-color="#FFFFFF"/><stop offset="0.6" stop-color="#F1F8FF"/><stop offset="1" stop-color="#BECBE2"/>
    </linearGradient>
    <radialGradient id="ruby-body" cx="0.34" cy="0.30" r="0.85">
      <stop offset="0" stop-color="#FA9FB3"/><stop offset="0.28" stop-color="#DD1B57"/>
      <stop offset="0.7" stop-color="#7F0322"/><stop offset="1" stop-color="#40030C"/>
    </radialGradient>
    <linearGradient id="ruby-table" x1="0" y1="0" x2="1" y2="1">
      <stop offset="0" stop-color="#FA9FB3" stop-opacity="0.75"/><stop offset="1" stop-color="#DD1B57" stop-opacity="0.15"/>
    </linearGradient>
    <linearGradient id="sapphire-table" x1="0" y1="0" x2="1" y2="1">
      <stop offset="0" stop-color="#74B1FB"/><stop offset="0.5" stop-color="#2D71E2"/><stop offset="1" stop-color="#103EA7"/>
    </linearGradient>
    <linearGradient id="spec-hl" x1="0" y1="0" x2="1" y2="1">
      <stop offset="0" stop-color="#FFFFFF" stop-opacity="0.85"/><stop offset="0.5" stop-color="#FFFFFF" stop-opacity="0"/>
    </linearGradient>
    <radialGradient id="soft" cx="0.5" cy="0.5" r="0.5">
      <stop offset="0" stop-color="#FFFFFF"/><stop offset="1" stop-color="#FFFFFF" stop-opacity="0"/>
    </radialGradient>
    <filter id="blur-s" x="-50%" y="-50%" width="200%" height="200%"><feGaussianBlur stdDeviation="2"/></filter>
    <filter id="blur-m" x="-50%" y="-50%" width="200%" height="200%"><feGaussianBlur stdDeviation="6"/></filter>
    <filter id="blur-l" x="-50%" y="-50%" width="200%" height="200%"><feGaussianBlur stdDeviation="14"/></filter>
    <filter id="grain" x="0" y="0" width="100%" height="100%">
      <feTurbulence type="fractalNoise" baseFrequency="0.9" numOctaves="2" seed="7" stitchTiles="stitch"/>
      <feColorMatrix values="0 0 0 0 1  0 0 0 0 1  0 0 0 0 1  0.32 0 0 0 -0.12"/>
    </filter>
    <linearGradient id="night" x1="0" y1="0" x2="0.35" y2="1">
      <stop offset="0" stop-color="#080D25"/><stop offset="1" stop-color="#030615"/></linearGradient>
    <radialGradient id="vignette" cx="0.5" cy="0.5" r="0.75">
      <stop offset="0.55" stop-color="#000000" stop-opacity="0"/><stop offset="1" stop-color="#000000" stop-opacity="0.55"/></radialGradient>
    <clipPath id="frame-clip"><rect width="512" height="512" rx="116"/></clipPath>
    <radialGradient id="glow0" cx="0.5" cy="0.5" r="0.5"><stop offset="0" stop-color="#1F5ED9" stop-opacity="0.6"/><stop offset="0.55" stop-color="#1F5ED9" stop-opacity="0.17"/><stop offset="1" stop-color="#1F5ED9" stop-opacity="0"/></radialGradient>
    <radialGradient id="glow1" cx="0.5" cy="0.5" r="0.5"><stop offset="0" stop-color="#DD1B57" stop-opacity="0.25"/><stop offset="0.55" stop-color="#DD1B57" stop-opacity="0.07"/><stop offset="1" stop-color="#DD1B57" stop-opacity="0"/></radialGradient>
    <radialGradient id="glow2" cx="0.5" cy="0.5" r="0.5"><stop offset="0" stop-color="#F535D5" stop-opacity="0.18"/><stop offset="0.55" stop-color="#F535D5" stop-opacity="0.05"/><stop offset="1" stop-color="#F535D5" stop-opacity="0"/></radialGradient>
    <linearGradient id="m-spec" gradientUnits="userSpaceOnUse" x1="91" y1="91" x2="421" y2="421"><stop offset="0" stop-color="#4FF7CC"/><stop offset="0.08" stop-color="#14E1D5"/><stop offset="0.17" stop-color="#03C8D7"/><stop offset="0.25" stop-color="#0CB0D4"/><stop offset="0.33" stop-color="#0B98CF"/><stop offset="0.42" stop-color="#007ED1"/><stop offset="0.5" stop-color="#1F5ED9"/><stop offset="0.58" stop-color="#7655F2"/><stop offset="0.67" stop-color="#B748F1"/><stop offset="0.75" stop-color="#F535D5"/><stop offset="0.83" stop-color="#F126A9"/><stop offset="0.92" stop-color="#E91D7E"/><stop offset="1" stop-color="#DD1B57"/></linearGradient><linearGradient id="m-hl" gradientUnits="userSpaceOnUse" x1="91" y1="91" x2="256" y2="256"><stop offset="0" stop-color="#FFFFFF" stop-opacity="0.9"/><stop offset="1" stop-color="#FFFFFF" stop-opacity="0"/></linearGradient>
  </defs>
  <style>
    .pane { animation: pane 6s ease-in-out infinite; }
    .p2 { animation-delay: .35s; } .p3 { animation-delay: .7s; } .p4 { animation-delay: 1.05s; }
    .qed { animation: qed 6s ease-in-out infinite; animation-delay: 1.4s; transform-box: fill-box; transform-origin: center; }
    .twinkle { animation: twinkle 3.2s ease-in-out infinite; transform-box: fill-box; transform-origin: center; }
    .t2 { animation-delay: 1.1s; } .t3 { animation-delay: 2.2s; }
    @keyframes pane { 0%, 100% { opacity: 1; } 45% { opacity: .55; } }
    @keyframes qed { 0%, 100% { transform: scale(1); } 45% { transform: scale(.9); } }
    @keyframes twinkle { 0%, 100% { opacity: .95; transform: scale(1); } 50% { opacity: .35; transform: scale(.55); } }
    @media (prefers-reduced-motion: reduce) { .pane, .qed, .twinkle { animation: none; } }
  </style>
  <g clip-path="url(#frame-clip)">
    <rect width="512" height="512" fill="url(#night)"/>
    <circle cx="256" cy="256" r="300" fill="url(#glow0)"/>
    <circle cx="256" cy="256" r="110" fill="url(#glow1)"/>
    <circle cx="470" cy="480" r="260" fill="url(#glow2)"/>
    <rect width="512" height="512" fill="url(#vignette)"/>
    <rect width="512" height="512" filter="url(#grain)" opacity="0.55"/>
    <g>
    <g fill="none" stroke="url(#m-spec)" opacity="0.6" filter="url(#blur-m)"><rect x="106" y="106" width="300" height="300" rx="39" stroke-width="18.48"/><rect x="134.5" y="134.5" width="243" height="243" rx="31.59" transform="rotate(12 256 256)" stroke-width="17.16"/><rect x="157.75" y="157.75" width="196.5" height="196.5" rx="25.55" transform="rotate(24 256 256)" stroke-width="15.84"/><rect x="176.5" y="176.5" width="159" height="159" rx="20.67" transform="rotate(36 256 256)" stroke-width="14.52"/></g>
    <g stroke-linejoin="round"><g class="pane p1"><rect x="106" y="106" width="300" height="300" rx="39" fill="#8BB9FD" fill-opacity="0.035" stroke="url(#m-spec)" stroke-width="8.4"/><rect x="106.84" y="106.84" width="298.32" height="298.32" rx="39" fill="none" stroke="url(#m-hl)" stroke-width="2.35"/></g><g class="pane p2"><rect x="134.5" y="134.5" width="243" height="243" rx="31.59" transform="rotate(12 256 256)" fill="#8BB9FD" fill-opacity="0.035" stroke="url(#m-spec)" stroke-width="7.8"/><rect x="135.28" y="135.28" width="241.44" height="241.44" rx="31.59" transform="rotate(12 256 256)" fill="none" stroke="url(#m-hl)" stroke-width="2.18"/></g><g class="pane p3"><rect x="157.75" y="157.75" width="196.5" height="196.5" rx="25.55" transform="rotate(24 256 256)" fill="#8BB9FD" fill-opacity="0.035" stroke="url(#m-spec)" stroke-width="7.2"/><rect x="158.47" y="158.47" width="195.06" height="195.06" rx="25.55" transform="rotate(24 256 256)" fill="none" stroke="url(#m-hl)" stroke-width="2.02"/></g><g class="pane p4"><rect x="176.5" y="176.5" width="159" height="159" rx="20.67" transform="rotate(36 256 256)" fill="#8BB9FD" fill-opacity="0.035" stroke="url(#m-spec)" stroke-width="6.6"/><rect x="177.16" y="177.16" width="157.68" height="157.68" rx="20.67" transform="rotate(36 256 256)" fill="none" stroke="url(#m-hl)" stroke-width="1.85"/></g></g>
    <clipPath id="m-ruby-clip"><rect x="218.5" y="218.5" width="75" height="75" rx="12" transform="rotate(48 256 256)" /></clipPath>
    <g class="qed">
    <rect x="209.12" y="209.12" width="93.75" height="93.75" rx="22.5" transform="rotate(48 256 256)" fill="#DD1B57" opacity="0.55" filter="url(#blur-m)"/>
    <rect x="218.5" y="218.5" width="75" height="75" rx="12" transform="rotate(48 256 256)" fill="url(#ruby-body)"/>
    <g transform="rotate(48 256 256)" stroke="#FA9FB3" stroke-opacity="0.32" stroke-width="1.35"><line x1="235" y1="235" x2="221.12" y2="221.12"/><line x1="277" y1="235" x2="290.88" y2="221.12"/><line x1="277" y1="277" x2="290.88" y2="290.88"/><line x1="235" y1="277" x2="221.12" y2="290.88"/></g>
    <rect x="235" y="235" width="42" height="42" rx="5.88" transform="rotate(48 256 256)" fill="url(#ruby-table)" stroke="#FA9FB3" stroke-opacity="0.45" stroke-width="1.05"/>
    <g clip-path="url(#m-ruby-clip)"><ellipse cx="241" cy="236.5" rx="25.5" ry="11.25" transform="rotate(-35 241 236.5)" fill="url(#spec-hl)" opacity="0.9"/></g>
    <rect x="218.5" y="218.5" width="75" height="75" rx="12" transform="rotate(48 256 256)" fill="none" stroke="#FA9FB3" stroke-opacity="0.75" stroke-width="1.5"/>
    </g>
    </g>
  </g>
  <rect x="1" y="1" width="510" height="510" rx="115" fill="none" stroke="#FFFFFF" stroke-opacity="0.1" stroke-width="2"/>
</svg>
