<svg xmlns="http://www.w3.org/2000/svg" viewBox="0 0 96 96" width="96" height="96">
  <defs>
    <linearGradient id="spectrum" x1="0" y1="0" x2="1" y2="0"><stop offset="0" stop-color="#2FDAC4"/><stop offset="0.08" stop-color="#0DC3C5"/><stop offset="0.17" stop-color="#0CABC0"/><stop offset="0.25" stop-color="#0994BA"/><stop offset="0.33" stop-color="#0780B8"/><stop offset="0.42" stop-color="#006ABC"/><stop offset="0.5" stop-color="#073FE3"/><stop offset="0.58" stop-color="#6E2FEA"/><stop offset="0.67" stop-color="#A81FD7"/><stop offset="0.75" stop-color="#DA02AF"/><stop offset="0.83" stop-color="#D50485"/><stop offset="0.92" stop-color="#CE015E"/><stop offset="1" stop-color="#C30839"/></linearGradient>
    <linearGradient id="ivory" x1="0" y1="0" x2="0" y2="1">
      <stop offset="0" stop-color="#FFFDF8"/><stop offset="1" stop-color="#F0DFC4"/>
    </linearGradient>
    <radialGradient id="ruby-body" cx="0.34" cy="0.30" r="0.85">
      <stop offset="0" stop-color="#FDB4BA"/><stop offset="0.25" stop-color="#ED3151"/>
      <stop offset="0.55" stop-color="#C30839"/><stop offset="0.82" stop-color="#7A051D"/><stop offset="1" stop-color="#3A060A"/>
    </radialGradient>
    <linearGradient id="ruby-table" x1="0" y1="0" x2="1" y2="1">
      <stop offset="0" stop-color="#FDB4BA" stop-opacity="0.8"/><stop offset="1" stop-color="#C30839" stop-opacity="0.1"/>
    </linearGradient>
    <linearGradient id="sapphire-table" x1="0" y1="0" x2="1" y2="1">
      <stop offset="0" stop-color="#76B0FE"/><stop offset="0.5" stop-color="#1962F0"/><stop offset="1" stop-color="#0D2FB4"/>
    </linearGradient>
    <linearGradient id="spec-hl" x1="0" y1="0" x2="1" y2="1">
      <stop offset="0" stop-color="#FFFFFF" stop-opacity="0.95"/><stop offset="0.55" stop-color="#FFFFFF" stop-opacity="0"/>
    </linearGradient>
    <linearGradient id="gloss" x1="0" y1="0" x2="0.55" y2="1">
      <stop offset="0" stop-color="#FFFFFF" stop-opacity="0.42"/><stop offset="0.42" stop-color="#FFFFFF" stop-opacity="0.04"/>
      <stop offset="1" stop-color="#000000" stop-opacity="0.16"/>
    </linearGradient>
    <filter id="blur-xs" x="-50%" y="-50%" width="200%" height="200%"><feGaussianBlur stdDeviation="1.2"/></filter>
    <filter id="blur-s" x="-50%" y="-50%" width="200%" height="200%"><feGaussianBlur stdDeviation="2.5"/></filter>
    <filter id="blur-m" x="-50%" y="-50%" width="200%" height="200%"><feGaussianBlur stdDeviation="6"/></filter>
    <filter id="blur-l" x="-50%" y="-50%" width="200%" height="200%"><feGaussianBlur stdDeviation="12"/></filter>
    <filter id="grain" x="0" y="0" width="100%" height="100%">
      <feTurbulence type="fractalNoise" baseFrequency="0.85" numOctaves="2" seed="11" stitchTiles="stitch"/>
      <feColorMatrix values="0 0 0 0 0.16  0 0 0 0 0.10  0 0 0 0 0.05  0.55 0 0 0 -0.2"/>
    </filter>
    <linearGradient id="tile" x1="0" y1="0" x2="0.6" y2="1"><stop offset="0" stop-color="#9B794F"/><stop offset="0.5" stop-color="#7F5B32"/><stop offset="1" stop-color="#664524"/></linearGradient>
    <clipPath id="tile-clip"><rect x="4" y="4" width="88" height="88" rx="24"/></clipPath>
    <linearGradient id="hairline" x1="0" y1="0" x2="0.4" y2="1">
      <stop offset="0" stop-color="#FEF6E7" stop-opacity="0.45"/><stop offset="1" stop-color="#29190C" stop-opacity="0.4"/></linearGradient>
  </defs>
  <rect x="5" y="8" width="86" height="86" rx="24" fill="#29190C" opacity="0.28" filter="url(#blur-xs)"/>
  <g clip-path="url(#tile-clip)">
  <rect x="4" y="4" width="88" height="88" fill="url(#tile)"/>
  <rect x="4" y="4" width="88" height="88" filter="url(#grain)" opacity="0.5"/>
  <g opacity="1">
    <ellipse cx="52.2" cy="55.88" rx="26" ry="23.4" fill="#29190C" opacity="0.4" filter="url(#blur-s)"/>
    <ellipse cx="55.32" cy="60.3" rx="24.7" ry="20.8" fill="#0B2087" opacity="0.45" filter="url(#blur-s)" style="mix-blend-mode:multiply"/>
    <g stroke="#BCDBFF" stroke-opacity="0.3" stroke-width="0.42" stroke-linejoin="round"><polygon points="59.49,51.17 67.8,46 71.02,55.95 61.71,60.71" fill="#071664"/><polygon points="61.71,60.71 71.02,55.95 56.95,70.02" fill="#030D42"/><polygon points="59.49,51.17 52.17,58.49 61.71,60.71" fill="#030D42"/><polygon points="52.17,58.49 61.71,60.71 56.95,70.02 47,66.8" fill="#030D42"/><polygon points="47,66.8 56.95,70.02 37.05,70.02" fill="#030D42"/><polygon points="52.17,58.49 41.83,58.49 47,66.8" fill="#0D2FB4"/><polygon points="41.83,58.49 47,66.8 37.05,70.02 32.29,60.71" fill="#0D2FB4"/><polygon points="32.29,60.71 37.05,70.02 22.98,55.95" fill="#0D2FB4"/><polygon points="41.83,58.49 34.51,51.17 32.29,60.71" fill="#073FE3"/><polygon points="34.51,51.17 32.29,60.71 22.98,55.95 26.2,46" fill="#073FE3"/><polygon points="26.2,46 22.98,55.95 22.98,36.05" fill="#073FE3"/><polygon points="34.51,51.17 34.51,40.83 26.2,46" fill="#BCDBFF"/><polygon points="34.51,40.83 26.2,46 22.98,36.05 32.29,31.29" fill="#76B0FE"/><polygon points="32.29,31.29 22.98,36.05 37.05,21.98" fill="#76B0FE"/><polygon points="34.51,40.83 41.83,33.51 32.29,31.29" fill="#76B0FE"/><polygon points="41.83,33.51 32.29,31.29 37.05,21.98 47,25.2" fill="#3480FC"/><polygon points="47,25.2 37.05,21.98 56.95,21.98" fill="#073FE3"/><polygon points="41.83,33.51 52.17,33.51 47,25.2" fill="#BCDBFF"/><polygon points="52.17,33.51 47,25.2 56.95,21.98 61.71,31.29" fill="#3480FC"/><polygon points="61.71,31.29 56.95,21.98 71.02,36.05" fill="#0D2FB4"/><polygon points="52.17,33.51 59.49,40.83 61.71,31.29" fill="#073FE3"/><polygon points="59.49,40.83 61.71,31.29 71.02,36.05 67.8,46" fill="#071664"/><polygon points="67.8,46 71.02,36.05 71.02,55.95" fill="#030D42"/><polygon points="59.49,40.83 59.49,51.17 67.8,46" fill="#0D2FB4"/></g>
    <polygon points="59.49,51.17 52.17,58.49 41.83,58.49 34.51,51.17 34.51,40.83 41.83,33.51 52.17,33.51 59.49,40.83" fill="url(#sapphire-table)" stroke="#BCDBFF" stroke-opacity="0.3" stroke-width="0.42" stroke-linejoin="round"/>
    <polygon points="71.02,55.95 56.95,70.02 37.05,70.02 22.98,55.95 22.98,36.05 37.05,21.98 56.95,21.98 71.02,36.05" fill="none" stroke="#BCDBFF" stroke-opacity="0.6" stroke-width="0.78" stroke-linejoin="round"/>
    <g><circle cx="40.76" cy="38.2" r="3.82" fill="#FFFFFF" opacity="0.6" filter="url(#blur-xs)"/><path d="M40.76,27.28 Q40.76,38.2 51.68,38.2 Q40.76,38.2 40.76,49.12 Q40.76,38.2 29.84,38.2 Q40.76,38.2 40.76,27.28Z" fill="#FFFFFF" opacity="0.95"/></g>
    </g>
  </g>
  <rect x="4.75" y="4.75" width="86.5" height="86.5" rx="23.25" fill="none" stroke="url(#hairline)" stroke-width="1.5"/>
</svg>
